<?xml version="1.0" encoding="UTF-8"?>
<svg id="Layer_2" data-name="Layer 2" xmlns="http://www.w3.org/2000/svg" viewBox="0 0 70.06 55.02">
  <defs>
    <style>
      .cls-1 {
        fill: #edbc79;
      }

      .cls-2 {
        fill: #067dba;
      }
    </style>
  </defs>
  <g id="Layer_1-2" data-name="Layer 1">
    <g>
      <path class="cls-2" d="M69.16,36.69c1.24,3.82,1.08,11.2.27,14.88-.66,2.96-2.46,3.35-5.23,1.98-8.78-4.25-17.12-9.59-25.91-13.46-3.5-1.49-6.51-.43-9.78,1.42-2.35,1.25-5.36,2.87-8.54,4.57-4.39,2.35-9.04,4.85-12.51,6.71-3.44,1.83-5.55,2.96-6.48,1.74-.53-.64-.76-1.97-.87-3.8-.12-3.66-.24-7.99.21-11.68.46-3.78,2.34-5.18,6.58-7.41,2.29-1.23,4.6-2.47,6.95-3.73,6.28-3.19,13.26-7.53,19.43-10.09,2.66-.9,5.01.58,7.38,1.77,6.05,3.23,17.96,9.6,23.88,12.82,1.88,1.07,3.74,2.14,4.57,4.17l.05.13Z"/>
      <path class="cls-1" d="M64.07,25.22c1.14,2.75.9,7.13.94,10.47-.03,2.31.03,4.84-.56,6.76-.21.6-.51.99-.91,1.17-1.37.47-2.88-.52-4.21-1.12-5.46-2.86-14.18-7.74-19.82-10.66-4.25-2.51-7.14-1.11-10.89.98-4.04,2.17-8.33,4.51-12.39,6.71-2.78,1.19-8.63,5.71-10.27,3.66-1.08-1.65-.88-5.3-.95-7.73.01-2.61-.04-5.31.33-7.84.36-5.46,7.21-7.5,11.58-10.15,5.33-2.69,11.08-6.47,16.41-8.47,2.64-.81,5.01.56,7.35,1.75,4.59,2.46,12.53,6.78,17.56,9.51,2.22,1.27,4.68,2.44,5.76,4.82l.06.13Z"/>
      <path class="cls-2" d="M58.95,13.69c1.63,4.13,1.02,10.66.91,15.24-.24,4.12-2.05,4.19-5.25,2.52-3.94-2.01-9.93-5.47-14.23-7.72-3.48-2.07-6.76-2.33-10.38-.18-4.08,2.09-10.51,5.81-14.41,7.81-2.35,1.18-3.87,1.58-4.63.5-1.05-1.65-.88-5.06-.94-7.43,0-2.5-.04-5.09.26-7.53.13-5.08,5.15-7.43,9.53-9.78C24.31,4.85,29.02,1.49,33.67.14c2.52-.56,4.84.65,7.07,1.79,3.58,1.91,9.02,4.92,12.79,7.01,2.07,1.21,4.28,2.43,5.36,4.61l.07.13Z"/>
    </g>
  </g>
</svg>