<?xml version="1.0" encoding="UTF-8"?>
<svg id="Layer_2" data-name="Layer 2" xmlns="http://www.w3.org/2000/svg" viewBox="0 0 80.13 80.13">
  <defs>
    <style>
      .cls-1 {
        fill: #edbc79;
      }

      .cls-1, .cls-2 {
        stroke-width: 0px;
      }

      .cls-2 {
        fill: #067dba;
      }
    </style>
  </defs>
  <g id="Layer_1-2" data-name="Layer 1">
    <path class="cls-1" d="M80.13,10v30.07h-20.03v-10.04c0-5.52-4.48-10-10-10h-20.06c-5.53,0-10,4.48-10,10v10.04H0V10C0,4.48,4.48,0,10,0h60.13c5.53,0,10,4.48,10,10Z"/>
    <path class="cls-2" d="M80.13,40.07v30.06c0,5.52-4.47,10-10,10H10c-5.52,0-10-4.48-10-10v-30.06h20.04v10.03c0,5.52,4.47,10,10,10h20.06c5.52,0,10-4.48,10-10v-10.03h20.03Z"/>
    <path class="cls-1" d="M60.1,40.07v10.03c0,5.52-4.48,10-10,10h-20.06c-5.53,0-10-4.48-10-10v-10.03h40.06Z"/>
    <path class="cls-2" d="M60.1,30.03v10.04H20.04v-10.04c0-5.52,4.47-10,10-10h20.06c5.52,0,10,4.48,10,10Z"/>
  </g>
</svg>